PathFileType	4	(X/Y/Z)	Patient4_TMGait_0pt4_03_right_19.trc.trc
DataRate	CameraRate	NumFrames	NumMarkers	Units	OrigDataRate	OrigDataStartFrame	OrigNumFrames
74.468085106383	74.468085106383	5	33	mm	74.468085106383	89	       141
Frame#	Time	Sacral			L.Shoulder			Chest			R.Shoulder			Neck			R.ASIS			L.ASIS			R.Thigh.Superior			R.Thigh.Lateral			R.Thigh.Inferior			R.Patella			L.Thigh.Superior			L.Thigh.Lateral			L.Thigh.Inferior			L.Patella			L.Shank.Superior			L.Shank.Lateral			L.Shank.Inferior			R.Shank.Superior			R.Shank.Lateral			R.Shank.Inferior			R.Heel			R.Midfoot.Superior			R.Midfoot.Lateral			R.Toe			L.Heel			L.Midfoot.Lateral			L.Midfoot.Superior			L.Toe			L.Elbow			L.Wrist			R.Elbow			R.Wrist			
		X1	Y1	Z1	X2	Y2	Z2	X3	Y3	Z3	X4	Y4	Z4	X5	Y5	Z5	X6	Y6	Z6	X7	Y7	Z7	X8	Y8	Z8	X9	Y9	Z9	X10	Y10	Z10	X11	Y11	Z11	X12	Y12	Z12	X13	Y13	Z13	X14	Y14	Z14	X15	Y15	Z15	X16	Y16	Z16	X17	Y17	Z17	X18	Y18	Z18	X19	Y19	Z19	X20	Y20	Z20	X21	Y21	Z21	X22	Y22	Z22	X23	Y23	Z23	X24	Y24	Z24	X25	Y25	Z25	X26	Y26	Z26	X27	Y27	Z27	X28	Y28	Z28	X29	Y29	Z29	X30	Y30	Z30	X31	Y31	Z31	X32	Y32	Z32	X33	Y33	Z33	

89	25.331714285714	855.341342557326	1003.392213273824	481.963365182573	1012.168576224471	1407.519277589218	243.105994674693	1134.171603813078	1356.305368647442	397.029481221813	1073.494246497470	1449.487221992879	570.999103933722	1012.948423363915	1486.608376600005	392.493614298917	1090.392112587040	939.671183971304	581.071192166595	1057.278123657227	955.194205261626	308.995734711552	1133.991485681978	737.315435303932	553.153291207772	1064.142765320698	623.603841013155	622.834000199234	1140.610729816532	569.395174357333	541.906732640769	1136.836811690317	460.965171777775	561.485679049700	1127.312929093292	759.840115876092	334.163205345509	1052.455956768762	636.823493598663	274.447436715433	1149.467367231051	570.474582959747	332.515254904735	1157.574922808766	501.333208281614	338.824949131115	1138.069830638504	426.725824040533	329.502011966720	1057.387440536748	304.859230407211	280.298192569535	1124.536560033669	198.396186690069	346.647472097980	1063.821445904454	390.930998903970	568.277824706497	948.727160358518	341.034248022310	632.251009356807	939.777858073447	233.684450795532	577.963776570368	742.488760374834	145.897392354902	554.180233042135	917.878653041532	120.592077354952	592.460939259925	812.444089660966	100.966694507272	627.464573446600	1002.598580928081	33.810208346905	620.532150355315	1011.618227572682	37.922667000988	393.316280789405	1081.276734152715	35.280493011729	308.540978862617	1163.758967565756	99.741923278868	331.183859658212	1291.343305872741	51.946946550926	296.663330049792	951.903267182761	1053.073092108233	151.702164429558	1037.294800305630	805.255613387607	127.276297383939	1120.007450985278	1115.384861455898	715.674612861103	1303.329534749889	996.547069867617	584.738356113764	
90	25.345142857143	854.132809172446	1003.601382736408	478.957483892683	1013.712964639159	1406.831171506958	239.262509847358	1134.109051833534	1356.419753621004	394.688806493450	1071.761229356013	1450.477150269760	567.655373412947	1013.106305423393	1486.782619170371	388.150018251443	1089.083523840024	940.306457164499	579.149712956011	1056.938023847250	955.865684649039	307.057388637896	1138.710970346081	741.137934918831	551.516973143346	1072.691022320153	625.817374687619	621.966986099625	1151.547321554532	573.168680229060	541.885419531650	1149.615353496398	463.709521447170	562.013668496569	1125.460796531595	759.194520920087	330.461806658895	1049.218926229770	636.779982162581	272.222201437737	1145.888581514202	569.874228582291	329.973011129565	1153.529788964401	500.878068526516	336.565984553824	1133.845645290374	426.281817975526	327.657501689559	1052.599968080728	304.510199463378	279.167854121992	1119.489866879968	198.140047398155	345.867679922768	1074.970144269329	393.855835110139	568.329444326640	957.950414179526	347.615463404527	631.836746992285	946.211386361434	240.264673855320	578.246905575130	746.398129038176	160.274805689034	553.993634599297	920.724691150147	126.503614428535	592.622790004988	814.046639313440	111.576240496648	627.303910514985	1001.006243058309	34.260848285670	620.588059678002	1006.204098173644	37.904036265610	393.248357156281	1075.810403948567	35.163847905369	308.403451240641	1158.318154769959	99.651094466745	330.981291117735	1285.909797596825	51.848469994171	296.535275298568	957.283459952686	1052.102383316430	146.730298830451	1044.669662500986	804.900566452881	123.193468026439	1111.009147348539	1117.042082409540	716.178359701703	1293.264269511475	990.750777640218	590.378115072974	
91	25.358571428571	852.857908536943	1003.826493507998	476.038673920524	1015.079018334524	1406.332483300113	235.764547883275	1133.929382224737	1356.613207203489	392.595406843354	1069.950794030990	1451.356315558495	564.658151133994	1013.181501032495	1487.036037779444	384.190221576329	1087.810112401001	940.995057093318	577.119227533884	1056.455668989835	956.548920288270	305.042472828199	1143.069319844465	745.168500803232	549.924793724075	1080.799307070424	628.495637097297	621.223574219608	1161.846267043926	577.450385611809	541.924095433447	1161.915007206088	467.155747127346	562.501121802456	1123.642554123663	758.667765632017	327.030630469976	1046.128907175538	636.751635573248	270.132546560729	1142.419376833443	569.322393645006	327.632765479247	1149.582165095767	500.439637201927	334.505197405106	1129.702292025639	425.856627329985	325.977109881525	1047.896881833302	304.214051055921	278.138427680524	1114.481409490216	197.898841724333	345.162860499635	1085.976012382223	397.267485360256	568.449382678863	967.363110118129	354.223958054448	631.565870125098	953.198413124746	246.896172614766	578.616848046784	751.455188678050	173.703730409872	554.010385683523	924.633634967105	132.668977571113	592.922091695057	817.010545538967	121.795998279928	627.318889788857	1001.005487723376	35.292755810735	620.752031705708	1000.783531205565	37.890283482968	393.173390676571	1070.345620242839	35.067026286914	308.273625307896	1152.886008642563	99.557568874008	330.800521002432	1280.478978130058	51.738587187852	296.418812164726	963.099829600995	1051.316483139537	141.983813296210	1052.154098916863	804.668950122624	119.308854951941	1101.457141295113	1118.591622782557	716.701730811782	1282.634433827639	984.825050380157	596.739942826490	
92	25.372000000000	851.568557489132	1004.118010949442	473.199185471870	1016.245444192302	1406.083631176238	232.610673477604	1133.644448535093	1356.925735995469	390.718054200118	1068.112229514521	1452.161271089502	561.989538621598	1013.179445633722	1487.405682283467	380.635319119599	1086.584502437988	941.801439683378	574.995126441879	1055.888803384496	957.236502717785	302.963188545763	1146.963418293779	749.359839612376	548.342000740996	1088.335769506900	631.602575088302	620.554247209163	1171.328306439714	582.185234790910	541.917746329871	1173.577925229299	471.241368933246	562.886757479827	1121.904368426561	758.259002050404	323.977245601872	1043.213629770261	636.742746933878	268.238707552893	1139.075988664655	568.812376755203	325.568574909782	1145.743932796666	500.017724283740	332.726734343651	1125.652097056542	425.456991138936	324.521602703921	1043.297765718651	303.983715407538	277.246815835668	1109.518595590752	197.677044309425	344.564388433806	1096.707654162329	401.099522020664	568.613761894404	976.861779250386	360.656570222611	631.442544144733	960.748365678435	253.331249772004	579.089303539868	757.666370195717	185.621535994522	554.290978606280	929.757902569869	138.793516684476	593.422903686755	821.469338877108	131.157586585770	627.564241929922	1002.905250112427	36.897119106944	621.051440169090	995.360583977118	37.879485895381	393.093023572241	1064.889991786522	34.992685040901	308.155437368803	1147.462647752744	99.471883443220	330.648460676955	1275.055594618311	51.635386619175	296.319508700957	969.293975875826	1050.785199473645	137.509718837215	1059.737505053391	804.640968262665	115.649462992393	1091.455703815915	1120.070569516600	717.163512161927	1271.458097591324	978.753420119758	603.767508544447	
93	25.385428571429	850.311588997961	1004.515211534774	470.428189396470	1017.220157997821	1406.127289393318	229.781269899612	1133.272362956215	1357.385433435355	389.026840188114	1066.280785538115	1452.928426968539	559.619813598149	1013.111302120215	1487.916476566374	377.490115726011	1085.409143463301	942.781192036909	572.822673867513	1055.298479905725	957.919704660162	300.850460262095	1150.333172826733	753.664242804063	546.739385960975	1095.224776743583	635.081585880873	619.915317404849	1179.883402399934	587.292512667885	541.777773316829	1184.494192310096	475.880586984453	563.122880200896	1120.262546140225	757.948231873855	321.380833110498	1040.473972111843	636.756811187088	266.580328700310	1135.844533336742	568.333152155777	323.833907890529	1141.998840445021	499.610006130802	331.286446956566	1121.682233346265	425.087907931889	323.331162365898	1038.799986613509	303.823270066118	276.515127522728	1104.595692300887	197.477273391978	344.093535308099	1107.077445306436	405.262257669927	568.799380386913	986.382318834867	366.702423420798	631.470992755705	968.893175759982	259.318700825261	579.681413703356	765.038437639279	195.546204310108	554.886804829809	936.243287547974	144.555785673449	594.181363428659	827.530417265626	139.228625178286	628.090861451656	1006.964756485991	38.968453852282	621.517980758167	989.936030804330	37.869933595098	393.011170577972	1059.446286758865	34.941131338608	308.053090292707	1142.045518073323	99.400018800988	330.530483382354	1269.640737809265	51.549401208451	296.240652234566	975.777004467535	1050.566221946632	133.341325855479	1067.412833990105	804.893685950749	112.242261780704	1081.131905246049	1121.517570000515	717.481656512182	1259.759609952682	972.531125306987	611.384174275204	
